<mxfile host="app.diagrams.net" modified="2023-01-11T13:25:08.471Z" agent="5.0 (Windows NT 10.0; Win64; x64) AppleWebKit/537.36 (KHTML, like Gecko) Chrome/108.0.0.0 Safari/537.36" etag="577jcqHQqZ4y1BZEBgRQ" version="20.8.3" type="github" pages="4">
  <diagram id="XnPWyu72ihGpaVSUxvkg" name="페이지-1">
    <mxGraphModel dx="936" dy="502" grid="1" gridSize="10" guides="1" tooltips="1" connect="1" arrows="1" fold="1" page="1" pageScale="1" pageWidth="827" pageHeight="1169" math="0" shadow="0">
      <root>
        <mxCell id="0" />
        <mxCell id="1" parent="0" />
        <mxCell id="N-8J02xjS0bmuyAkLnBj-1" value="&lt;font face=&quot;Nanum Gothic&quot; data-font-src=&quot;https://fonts.googleapis.com/css?family=Nanum+Gothic&quot; style=&quot;font-size: 19px;&quot;&gt;&lt;b style=&quot;&quot;&gt;깊은 복사 vs 얕은 복사&lt;/b&gt;&lt;/font&gt;" style="text;html=1;strokeColor=none;fillColor=none;align=center;verticalAlign=middle;whiteSpace=wrap;rounded=0;" parent="1" vertex="1">
          <mxGeometry x="10" y="20" width="280" height="30" as="geometry" />
        </mxCell>
        <mxCell id="iFHaDSy6pZfwZREz0Ye--1" value="&lt;font face=&quot;Nanum Gothic&quot;&gt;&lt;span style=&quot;font-size: 19px;&quot;&gt;&lt;b&gt;얕은복사&lt;/b&gt;&lt;/span&gt;&lt;/font&gt;" style="text;html=1;strokeColor=none;fillColor=none;align=center;verticalAlign=middle;whiteSpace=wrap;rounded=0;" vertex="1" parent="1">
          <mxGeometry x="40" y="60" width="120" height="30" as="geometry" />
        </mxCell>
      </root>
    </mxGraphModel>
  </diagram>
  <diagram id="wkl7SyjMBUAmF5WAS8nd" name="페이지-4">
    <mxGraphModel dx="924" dy="437" grid="1" gridSize="10" guides="1" tooltips="1" connect="1" arrows="1" fold="1" page="1" pageScale="1" pageWidth="827" pageHeight="1169" math="0" shadow="0">
      <root>
        <mxCell id="0" />
        <mxCell id="1" parent="0" />
        <mxCell id="4g6dYmIlYwkJ-LZHyF78-1" value="" style="group" vertex="1" connectable="0" parent="1">
          <mxGeometry x="220" y="160" width="340" height="115" as="geometry" />
        </mxCell>
        <mxCell id="p2lqkwyoAzUmZg0lLn2F-1" value="&lt;font face=&quot;Montserrat&quot;&gt;a = 20&lt;/font&gt;" style="text;html=1;strokeColor=none;fillColor=none;align=center;verticalAlign=middle;whiteSpace=wrap;rounded=0;fontFamily=Courier New;fontSize=19;" vertex="1" parent="4g6dYmIlYwkJ-LZHyF78-1">
          <mxGeometry width="120" height="30" as="geometry" />
        </mxCell>
        <mxCell id="azwaJ01oJzretApHGDk--2" value="" style="triangle;whiteSpace=wrap;html=1;fontFamily=Montserrat;fontSource=https%3A%2F%2Ffonts.googleapis.com%2Fcss%3Ffamily%3DMontserrat;fontSize=19;rotation=-90;" vertex="1" parent="4g6dYmIlYwkJ-LZHyF78-1">
          <mxGeometry x="50" y="45" width="50" height="60" as="geometry" />
        </mxCell>
        <mxCell id="azwaJ01oJzretApHGDk--3" value="b" style="text;html=1;strokeColor=none;fillColor=none;align=center;verticalAlign=middle;whiteSpace=wrap;rounded=0;fontFamily=Montserrat;fontSource=https%3A%2F%2Ffonts.googleapis.com%2Fcss%3Ffamily%3DMontserrat;fontSize=19;" vertex="1" parent="4g6dYmIlYwkJ-LZHyF78-1">
          <mxGeometry x="65" y="70" width="20" height="30" as="geometry" />
        </mxCell>
        <mxCell id="azwaJ01oJzretApHGDk--4" value="&lt;font data-font-src=&quot;https://fonts.googleapis.com/css?family=Montserrat&quot; face=&quot;Montserrat&quot;&gt;10&lt;/font&gt;" style="rounded=0;whiteSpace=wrap;html=1;fontFamily=Tahoma;fontSize=19;" vertex="1" parent="4g6dYmIlYwkJ-LZHyF78-1">
          <mxGeometry x="220" y="55" width="120" height="60" as="geometry" />
        </mxCell>
        <mxCell id="azwaJ01oJzretApHGDk--1" value="" style="curved=1;endArrow=classic;html=1;rounded=0;fontFamily=Montserrat;fontSource=https%3A%2F%2Ffonts.googleapis.com%2Fcss%3Ffamily%3DMontserrat;fontSize=19;exitX=0.5;exitY=1;exitDx=0;exitDy=0;entryX=0;entryY=0.25;entryDx=0;entryDy=0;" edge="1" parent="4g6dYmIlYwkJ-LZHyF78-1" source="azwaJ01oJzretApHGDk--2" target="azwaJ01oJzretApHGDk--4">
          <mxGeometry width="50" height="50" relative="1" as="geometry">
            <mxPoint x="350" y="250" as="sourcePoint" />
            <mxPoint x="260" y="77.5" as="targetPoint" />
            <Array as="points">
              <mxPoint x="150" y="80" />
              <mxPoint x="190" y="40" />
            </Array>
          </mxGeometry>
        </mxCell>
        <mxCell id="jBj2n8Tc3Vk0lkbPYWaG-5" value="&lt;font data-font-src=&quot;https://fonts.googleapis.com/css?family=Montserrat&quot; face=&quot;Montserrat&quot;&gt;20&lt;/font&gt;" style="rounded=0;whiteSpace=wrap;html=1;fontFamily=Tahoma;fontSize=19;" vertex="1" parent="1">
          <mxGeometry x="440" y="310" width="120" height="60" as="geometry" />
        </mxCell>
        <mxCell id="jBj2n8Tc3Vk0lkbPYWaG-2" value="" style="triangle;whiteSpace=wrap;html=1;fontFamily=Montserrat;fontSource=https%3A%2F%2Ffonts.googleapis.com%2Fcss%3Ffamily%3DMontserrat;fontSize=19;rotation=-90;" vertex="1" parent="1">
          <mxGeometry x="275" y="300" width="50" height="60" as="geometry" />
        </mxCell>
        <mxCell id="jBj2n8Tc3Vk0lkbPYWaG-3" value="a" style="text;html=1;strokeColor=none;fillColor=none;align=center;verticalAlign=middle;whiteSpace=wrap;rounded=0;fontFamily=Montserrat;fontSource=https%3A%2F%2Ffonts.googleapis.com%2Fcss%3Ffamily%3DMontserrat;fontSize=19;" vertex="1" parent="1">
          <mxGeometry x="290" y="325" width="20" height="30" as="geometry" />
        </mxCell>
        <mxCell id="jBj2n8Tc3Vk0lkbPYWaG-7" value="" style="curved=1;endArrow=classic;html=1;rounded=0;fontFamily=Montserrat;fontSource=https%3A%2F%2Ffonts.googleapis.com%2Fcss%3Ffamily%3DMontserrat;fontSize=19;entryX=0;entryY=0.5;entryDx=0;entryDy=0;exitX=0.5;exitY=1;exitDx=0;exitDy=0;" edge="1" parent="1" source="jBj2n8Tc3Vk0lkbPYWaG-2" target="jBj2n8Tc3Vk0lkbPYWaG-5">
          <mxGeometry width="50" height="50" relative="1" as="geometry">
            <mxPoint x="390" y="280" as="sourcePoint" />
            <mxPoint x="440" y="230" as="targetPoint" />
            <Array as="points">
              <mxPoint x="360" y="340" />
              <mxPoint x="410" y="290" />
            </Array>
          </mxGeometry>
        </mxCell>
      </root>
    </mxGraphModel>
  </diagram>
  <diagram id="jBvq1EVULDa3MjQVNGeB" name="페이지-2">
    <mxGraphModel dx="924" dy="500" grid="1" gridSize="10" guides="1" tooltips="1" connect="1" arrows="1" fold="1" page="1" pageScale="1" pageWidth="827" pageHeight="1169" math="0" shadow="0">
      <root>
        <mxCell id="0" />
        <mxCell id="1" parent="0" />
        <mxCell id="n6UvDWFDMOntvo86LxyE-1" value="&lt;font data-font-src=&quot;https://fonts.googleapis.com/css?family=Montserrat&quot; face=&quot;Montserrat&quot;&gt;let b = a&lt;/font&gt;" style="text;html=1;strokeColor=none;fillColor=none;align=center;verticalAlign=middle;whiteSpace=wrap;rounded=0;fontFamily=Courier New;fontSize=19;" vertex="1" parent="1">
          <mxGeometry x="40" y="10" width="120" height="30" as="geometry" />
        </mxCell>
        <mxCell id="n6UvDWFDMOntvo86LxyE-8" value="" style="curved=1;endArrow=classic;html=1;rounded=0;fontFamily=Montserrat;fontSource=https%3A%2F%2Ffonts.googleapis.com%2Fcss%3Ffamily%3DMontserrat;fontSize=19;exitX=0.5;exitY=1;exitDx=0;exitDy=0;entryX=0;entryY=0.25;entryDx=0;entryDy=0;" edge="1" parent="1" source="n6UvDWFDMOntvo86LxyE-5" target="n6UvDWFDMOntvo86LxyE-2">
          <mxGeometry width="50" height="50" relative="1" as="geometry">
            <mxPoint x="390" y="270" as="sourcePoint" />
            <mxPoint x="300" y="97.5" as="targetPoint" />
            <Array as="points">
              <mxPoint x="190" y="100" />
              <mxPoint x="230" y="60" />
            </Array>
          </mxGeometry>
        </mxCell>
        <mxCell id="n6UvDWFDMOntvo86LxyE-5" value="" style="triangle;whiteSpace=wrap;html=1;fontFamily=Montserrat;fontSource=https%3A%2F%2Ffonts.googleapis.com%2Fcss%3Ffamily%3DMontserrat;fontSize=19;rotation=-90;" vertex="1" parent="1">
          <mxGeometry x="90" y="65" width="50" height="60" as="geometry" />
        </mxCell>
        <mxCell id="n6UvDWFDMOntvo86LxyE-6" value="a" style="text;html=1;strokeColor=none;fillColor=none;align=center;verticalAlign=middle;whiteSpace=wrap;rounded=0;fontFamily=Montserrat;fontSource=https%3A%2F%2Ffonts.googleapis.com%2Fcss%3Ffamily%3DMontserrat;fontSize=19;" vertex="1" parent="1">
          <mxGeometry x="105" y="90" width="20" height="30" as="geometry" />
        </mxCell>
        <mxCell id="n6UvDWFDMOntvo86LxyE-2" value="&lt;font data-font-src=&quot;https://fonts.googleapis.com/css?family=Montserrat&quot; face=&quot;Montserrat&quot;&gt;10&lt;/font&gt;" style="rounded=0;whiteSpace=wrap;html=1;fontFamily=Tahoma;fontSize=19;" vertex="1" parent="1">
          <mxGeometry x="260" y="75" width="120" height="60" as="geometry" />
        </mxCell>
      </root>
    </mxGraphModel>
  </diagram>
  <diagram id="XC14bcKqNfbSgZ3ZbELD" name="페이지-3">
    <mxGraphModel dx="924" dy="500" grid="1" gridSize="10" guides="1" tooltips="1" connect="1" arrows="1" fold="1" page="1" pageScale="1" pageWidth="827" pageHeight="1169" math="0" shadow="0">
      <root>
        <mxCell id="0" />
        <mxCell id="1" parent="0" />
        <mxCell id="67aPBEpHnqOImYeWy9Ob-1" value="&lt;font face=&quot;Montserrat&quot;&gt;a = 20&lt;/font&gt;" style="text;html=1;strokeColor=none;fillColor=none;align=center;verticalAlign=middle;whiteSpace=wrap;rounded=0;fontFamily=Courier New;fontSize=19;" vertex="1" parent="1">
          <mxGeometry x="40" y="50" width="120" height="30" as="geometry" />
        </mxCell>
      </root>
    </mxGraphModel>
  </diagram>
</mxfile>
